<?xml version="1.0" encoding="utf-8"?>
<!-- Generator: Adobe Illustrator 16.0.0, SVG Export Plug-In . SVG Version: 6.00 Build 0)  -->
<!DOCTYPE svg PUBLIC "-//W3C//DTD SVG 1.1//EN" "http://www.w3.org/Graphics/SVG/1.1/DTD/svg11.dtd">
<svg version="1.1" id="Layer_1" xmlns="http://www.w3.org/2000/svg" xmlns:xlink="http://www.w3.org/1999/xlink" x="0px" y="0px"
	 width="128.737px" height="33.333px" viewBox="0 0 128.737 33.333" enable-background="new 0 0 128.737 33.333"
	 xml:space="preserve">
<g>
	<g>
		<g>
			<path fill="#005CA9" d="M36.332,18.584c-0.224,0-0.384,0-0.576-0.016v3.666h-2.433V10.581c0.8-0.096,1.633-0.176,2.529-0.176
				c3.073,0,4.545,1.776,4.545,4.082C40.397,16.663,39.021,18.584,36.332,18.584z M36.316,12.662c-0.192,0-0.336,0.016-0.56,0.032
				v3.746c0.192,0.016,0.304,0.032,0.48,0.032c1.057,0,1.713-0.656,1.713-1.937C37.949,13.334,37.34,12.662,36.316,12.662z"/>
			<path fill="#005CA9" d="M46.445,22.233l-0.624-2.033h-2.897L42.3,22.233h-2.401l3.938-11.797h1.136l3.922,11.797H46.445z
				 M44.38,15.03L43.532,18.2h1.681L44.38,15.03z"/>
			<path fill="#005CA9" d="M54.668,22.233L53.196,18.2c-0.112,0.016-0.24,0.016-0.352,0.016c-0.24,0-0.416-0.016-0.624-0.032v4.05
				h-2.433V10.581c0.72-0.096,1.649-0.176,2.689-0.176c3.122,0,4.482,1.745,4.482,3.81c0,1.457-0.576,2.513-1.681,3.265l2.049,4.754
				H54.668z M52.828,12.613c-0.24,0-0.384,0.016-0.608,0.048v3.537c0.208,0.032,0.304,0.032,0.512,0.032
				c1.104,0,1.745-0.624,1.745-1.873C54.477,13.27,53.9,12.613,52.828,12.613z"/>
			<path fill="#005CA9" d="M62.605,12.758v9.476h-2.433v-9.476h-2.545V10.5h7.507v2.257H62.605z"/>
			<path fill="#005CA9" d="M73.549,22.345l-4.786-6.13v6.019h-2.385V10.437l0.784-0.048l4.738,5.986V10.5h2.401v11.797
				L73.549,22.345z"/>
			<path fill="#005CA9" d="M76.187,22.233V10.5h6.083v2.241H78.62v2.417h3.233v2.145H78.62v2.689h3.649v2.241H76.187z"/>
			<path fill="#005CA9" d="M88.828,22.233L87.356,18.2c-0.112,0.016-0.24,0.016-0.353,0.016c-0.24,0-0.416-0.016-0.624-0.032v4.05
				h-2.433V10.581c0.72-0.096,1.649-0.176,2.689-0.176c3.122,0,4.482,1.745,4.482,3.81c0,1.457-0.576,2.513-1.681,3.265l2.049,4.754
				H88.828z M86.988,12.613c-0.24,0-0.384,0.016-0.608,0.048v3.537c0.208,0.032,0.304,0.032,0.512,0.032
				c1.104,0,1.745-0.624,1.745-1.873C88.636,13.27,88.06,12.613,86.988,12.613z"/>
			<path fill="#005CA9" d="M95.355,22.41c-1.088,0-2.385-0.417-3.345-1.073l0.72-2.209c0.785,0.592,1.697,1.009,2.561,1.009
				c0.769,0,1.088-0.417,1.088-0.993c0-0.592-0.32-1.056-1.761-2.097c-1.632-1.137-2.305-2.177-2.305-3.474
				c0-1.648,1.265-3.249,3.489-3.249c1.121,0,2.033,0.32,2.801,0.8l-0.72,2.193c-0.656-0.464-1.345-0.784-2.001-0.784
				c-0.752,0-1.121,0.4-1.121,0.928c0,0.656,0.433,0.96,1.697,1.889c1.793,1.265,2.385,2.273,2.385,3.633
				C98.845,20.809,97.677,22.41,95.355,22.41z"/>
		</g>
	</g>
</g>
<rect x="18.334" y="2.998" fill="none" stroke="#005CA9" stroke-width="2" stroke-linecap="round" width="95.193" height="27.666"/>
<g>
	<line fill="none" stroke="#005CA9" stroke-width="2" stroke-linecap="round" x1="18.334" y1="16.831" x2="3.124" y2="16.831"/>
	<line fill="none" stroke="#005CA9" stroke-width="2" stroke-linecap="round" x1="128.737" y1="16.831" x2="113.528" y2="16.831"/>
</g>
</svg>
