<?xml version="1.0" encoding="utf-8"?>
<!-- Generator: Adobe Illustrator 16.0.0, SVG Export Plug-In . SVG Version: 6.00 Build 0)  -->
<!DOCTYPE svg PUBLIC "-//W3C//DTD SVG 1.1//EN" "http://www.w3.org/Graphics/SVG/1.1/DTD/svg11.dtd">
<svg version="1.1" id="Layer_1" xmlns="http://www.w3.org/2000/svg" xmlns:xlink="http://www.w3.org/1999/xlink" x="0px" y="0px"
	 width="128.737px" height="33.333px" viewBox="0 0 128.737 33.333" enable-background="new 0 0 128.737 33.333"
	 xml:space="preserve">
<g>
	<g>
		<g>
			<path fill="#005CA9" d="M33.644,18.584c-0.224,0-0.384,0-0.576-0.016v3.666h-2.433V10.581c0.8-0.096,1.633-0.176,2.529-0.176
				c3.073,0,4.545,1.776,4.545,4.082C37.709,16.663,36.333,18.584,33.644,18.584z M33.628,12.662c-0.192,0-0.336,0.016-0.56,0.032
				v3.746c0.192,0.016,0.304,0.032,0.48,0.032c1.057,0,1.713-0.656,1.713-1.937C35.261,13.334,34.652,12.662,33.628,12.662z"/>
			<path fill="#005CA9" d="M43.757,22.233l-0.624-2.033h-2.897l-0.624,2.033H37.21l3.938-11.797h1.136l3.922,11.797H43.757z
				 M41.692,15.03L40.844,18.2h1.681L41.692,15.03z"/>
			<path fill="#005CA9" d="M51.981,22.233L50.508,18.2c-0.112,0.016-0.24,0.016-0.352,0.016c-0.24,0-0.416-0.016-0.624-0.032v4.05
				h-2.433V10.581c0.72-0.096,1.649-0.176,2.689-0.176c3.122,0,4.482,1.745,4.482,3.81c0,1.457-0.576,2.513-1.681,3.265l2.049,4.754
				H51.981z M50.141,12.613c-0.24,0-0.384,0.016-0.608,0.048v3.537c0.208,0.032,0.304,0.032,0.512,0.032
				c1.104,0,1.745-0.624,1.745-1.873C51.789,13.27,51.213,12.613,50.141,12.613z"/>
			<path fill="#005CA9" d="M60.349,22.41c-2.833,0-4.946-2.417-4.946-6.002c0-3.57,2.049-6.083,4.994-6.083
				c1.008,0,1.873,0.256,2.705,0.816l-0.849,2.049c-0.56-0.368-1.152-0.592-1.792-0.592c-1.457,0-2.513,1.329-2.513,3.697
				c0,2.417,1.008,3.842,2.545,3.842c0.656,0,1.281-0.208,1.873-0.608l0.784,2.033C62.302,22.153,61.357,22.41,60.349,22.41z"/>
			<path fill="#005CA9" d="M64.331,22.233V10.5h6.083v2.241h-3.649v2.417h3.233v2.145h-3.233v2.689h3.649v2.241H64.331z"/>
			<path fill="#005CA9" d="M72.123,22.233V10.5h2.433v11.733H72.123z"/>
			<path fill="#005CA9" d="M81.356,22.233L79.883,18.2c-0.112,0.016-0.24,0.016-0.352,0.016c-0.24,0-0.416-0.016-0.624-0.032v4.05
				h-2.433V10.581c0.72-0.096,1.649-0.176,2.689-0.176c3.122,0,4.482,1.745,4.482,3.81c0,1.457-0.576,2.513-1.681,3.265l2.049,4.754
				H81.356z M79.516,12.613c-0.24,0-0.384,0.016-0.608,0.048v3.537c0.208,0.032,0.304,0.032,0.512,0.032
				c1.104,0,1.745-0.624,1.745-1.873C81.164,13.27,80.588,12.613,79.516,12.613z"/>
			<path fill="#005CA9" d="M89.276,22.41c-2.769,0-4.498-2.401-4.498-6.035s1.777-6.05,4.61-6.05c2.769,0,4.498,2.369,4.498,6.018
				C93.886,19.977,92.093,22.41,89.276,22.41z M89.324,12.469c-1.265,0-2.001,1.457-2.001,3.89c0,2.417,0.736,3.922,2.001,3.922
				c1.264,0,2.017-1.505,2.017-3.922C91.341,13.926,90.588,12.469,89.324,12.469z"/>
			<path fill="#005CA9" d="M98.043,22.41c-1.088,0-2.385-0.417-3.345-1.073l0.72-2.209c0.785,0.592,1.697,1.009,2.561,1.009
				c0.769,0,1.088-0.417,1.088-0.993c0-0.592-0.32-1.056-1.761-2.097c-1.632-1.137-2.305-2.177-2.305-3.474
				c0-1.648,1.265-3.249,3.489-3.249c1.121,0,2.033,0.32,2.801,0.8l-0.72,2.193c-0.656-0.464-1.345-0.784-2.001-0.784
				c-0.752,0-1.121,0.4-1.121,0.928c0,0.656,0.433,0.96,1.697,1.889c1.793,1.265,2.385,2.273,2.385,3.633
				C101.533,20.809,100.364,22.41,98.043,22.41z"/>
		</g>
	</g>
</g>
<rect x="18.334" y="2.998" fill="none" stroke="#005CA9" stroke-width="2" stroke-linecap="round" width="95.193" height="27.666"/>
<g>
	<line fill="none" stroke="#005CA9" stroke-width="2" stroke-linecap="round" x1="18.334" y1="16.831" x2="3.124" y2="16.831"/>
	<line fill="none" stroke="#005CA9" stroke-width="2" stroke-linecap="round" x1="128.737" y1="16.831" x2="113.528" y2="16.831"/>
</g>
</svg>
