<?xml version="1.0" encoding="utf-8"?>
<!-- Generator: Adobe Illustrator 16.0.0, SVG Export Plug-In . SVG Version: 6.00 Build 0)  -->
<!DOCTYPE svg PUBLIC "-//W3C//DTD SVG 1.1//EN" "http://www.w3.org/Graphics/SVG/1.1/DTD/svg11.dtd">
<svg version="1.1" id="Layer_1" xmlns="http://www.w3.org/2000/svg" xmlns:xlink="http://www.w3.org/1999/xlink" x="0px" y="0px"
	 width="129.87px" height="33.333px" viewBox="0 0 129.87 33.333" enable-background="new 0 0 129.87 33.333" xml:space="preserve">
<g>
	<g>
		<g>
			<path fill="#FFFFFF" d="M36.9,22.41c-2.833,0-4.946-2.417-4.946-6.002c0-3.57,2.049-6.083,4.994-6.083
				c1.008,0,1.873,0.256,2.705,0.816l-0.849,2.049c-0.56-0.368-1.152-0.592-1.792-0.592c-1.457,0-2.513,1.329-2.513,3.697
				c0,2.417,1.008,3.842,2.545,3.842c0.656,0,1.281-0.208,1.873-0.608l0.784,2.033C38.854,22.153,37.909,22.41,36.9,22.41z"/>
			<path fill="#FFFFFF" d="M44.596,22.41c-2.769,0-4.498-2.401-4.498-6.035s1.777-6.05,4.61-6.05c2.769,0,4.498,2.369,4.498,6.018
				C49.206,19.977,47.414,22.41,44.596,22.41z M44.645,12.469c-1.265,0-2.001,1.457-2.001,3.89c0,2.417,0.736,3.922,2.001,3.922
				c1.264,0,2.017-1.505,2.017-3.922C46.661,13.926,45.909,12.469,44.645,12.469z"/>
			<path fill="#FFFFFF" d="M57.91,22.345l-4.786-6.13v6.019h-2.385V10.437l0.784-0.048l4.738,5.986V10.5h2.401v11.797L57.91,22.345z
				"/>
			<path fill="#FFFFFF" d="M64.884,12.758v9.476h-2.433v-9.476h-2.545V10.5h7.507v2.257H64.884z"/>
			<path fill="#FFFFFF" d="M73.284,22.233l-0.624-2.033h-2.897l-0.624,2.033h-2.401l3.938-11.797h1.136l3.922,11.797H73.284z
				 M71.219,15.03L70.371,18.2h1.681L71.219,15.03z"/>
			<path fill="#FFFFFF" d="M80.068,12.758v9.476h-2.433v-9.476H75.09V10.5h7.507v2.257H80.068z"/>
			<path fill="#FFFFFF" d="M87.604,22.41c-2.769,0-4.498-2.401-4.498-6.035s1.777-6.05,4.61-6.05c2.769,0,4.498,2.369,4.498,6.018
				C92.214,19.977,90.421,22.41,87.604,22.41z M87.652,12.469c-1.265,0-2.001,1.457-2.001,3.89c0,2.417,0.736,3.922,2.001,3.922
				c1.264,0,2.017-1.505,2.017-3.922C89.669,13.926,88.917,12.469,87.652,12.469z"/>
			<path fill="#FFFFFF" d="M96.371,22.41c-1.088,0-2.385-0.417-3.345-1.073l0.72-2.209c0.785,0.592,1.697,1.009,2.561,1.009
				c0.769,0,1.088-0.417,1.088-0.993c0-0.592-0.32-1.056-1.761-2.097c-1.632-1.137-2.305-2.177-2.305-3.474
				c0-1.648,1.265-3.249,3.489-3.249c1.121,0,2.033,0.32,2.801,0.8l-0.72,2.193c-0.656-0.464-1.345-0.784-2.001-0.784
				c-0.752,0-1.121,0.4-1.121,0.928c0,0.656,0.433,0.96,1.697,1.889c1.793,1.265,2.385,2.273,2.385,3.633
				C99.861,20.809,98.692,22.41,96.371,22.41z"/>
		</g>
	</g>
</g>
<rect x="18.334" y="2.998" fill="none" stroke="#FFFFFF" stroke-width="2" stroke-linecap="round" width="95.193" height="27.666"/>
<g>
	<line fill="none" stroke="#FFFFFF" stroke-width="2" stroke-linecap="round" x1="18.334" y1="16.831" x2="3.124" y2="16.831"/>
	<line fill="none" stroke="#FFFFFF" stroke-width="2" stroke-linecap="round" x1="128.737" y1="16.831" x2="113.528" y2="16.831"/>
</g>
<g>
</g>
</svg>
