<?xml version="1.0" encoding="utf-8"?>
<!-- Generator: Adobe Illustrator 16.0.0, SVG Export Plug-In . SVG Version: 6.00 Build 0)  -->
<!DOCTYPE svg PUBLIC "-//W3C//DTD SVG 1.1//EN" "http://www.w3.org/Graphics/SVG/1.1/DTD/svg11.dtd">
<svg version="1.1" id="Layer_1" xmlns="http://www.w3.org/2000/svg" xmlns:xlink="http://www.w3.org/1999/xlink" x="0px" y="0px"
	 width="129.87px" height="33.333px" viewBox="0 0 129.87 33.333" enable-background="new 0 0 129.87 33.333" xml:space="preserve">
<g>
	<g>
		<g>
			<path fill="#FFFFFF" d="M41.357,22.233v-4.818h-3.009v4.818h-2.433V10.5h2.433v4.69h3.009V10.5h2.433v11.733H41.357z"/>
			<path fill="#FFFFFF" d="M45.707,22.233V10.5h2.433v11.733H45.707z"/>
			<path fill="#FFFFFF" d="M52.748,22.41c-1.088,0-2.385-0.417-3.345-1.073l0.72-2.209c0.784,0.592,1.697,1.009,2.561,1.009
				c0.769,0,1.088-0.417,1.088-0.993c0-0.592-0.32-1.056-1.761-2.097c-1.632-1.137-2.305-2.177-2.305-3.474
				c0-1.648,1.265-3.249,3.489-3.249c1.121,0,2.033,0.32,2.801,0.8l-0.72,2.193c-0.656-0.464-1.345-0.784-2.001-0.784
				c-0.752,0-1.121,0.4-1.121,0.928c0,0.656,0.433,0.96,1.697,1.889c1.793,1.265,2.385,2.273,2.385,3.633
				C56.237,20.809,55.069,22.41,52.748,22.41z"/>
			<path fill="#FFFFFF" d="M61.869,12.758v9.476h-2.433v-9.476h-2.545V10.5h7.507v2.257H61.869z"/>
			<path fill="#FFFFFF" d="M69.404,22.41c-2.769,0-4.498-2.401-4.498-6.035s1.777-6.05,4.61-6.05c2.769,0,4.498,2.369,4.498,6.018
				C74.014,19.977,72.221,22.41,69.404,22.41z M69.452,12.469c-1.265,0-2.001,1.457-2.001,3.89c0,2.417,0.736,3.922,2.001,3.922
				c1.264,0,2.017-1.505,2.017-3.922C71.469,13.926,70.716,12.469,69.452,12.469z M69.18,9.588l-0.608-0.913l2.513-2.257
				l1.024,1.617L69.18,9.588z"/>
			<path fill="#FFFFFF" d="M80.428,22.233L78.956,18.2c-0.112,0.016-0.24,0.016-0.352,0.016c-0.24,0-0.416-0.016-0.624-0.032v4.05
				h-2.433V10.581c0.72-0.096,1.649-0.176,2.689-0.176c3.122,0,4.482,1.745,4.482,3.81c0,1.457-0.576,2.513-1.681,3.265l2.049,4.754
				H80.428z M78.588,12.613c-0.24,0-0.384,0.016-0.608,0.048v3.537c0.208,0.032,0.304,0.032,0.512,0.032
				c1.104,0,1.745-0.624,1.745-1.873C80.236,13.27,79.66,12.613,78.588,12.613z"/>
			<path fill="#FFFFFF" d="M84.298,22.233V10.5h2.433v11.733H84.298z"/>
			<path fill="#FFFFFF" d="M94.204,22.233l-0.624-2.033h-2.897l-0.624,2.033h-2.401l3.938-11.797h1.136l3.922,11.797H94.204z
				 M92.139,15.03L91.291,18.2h1.681L92.139,15.03z"/>
		</g>
	</g>
</g>
<rect x="18.334" y="2.998" fill="none" stroke="#FFFFFF" stroke-width="2" stroke-linecap="round" width="95.193" height="27.666"/>
<g>
	<line fill="none" stroke="#FFFFFF" stroke-width="2" stroke-linecap="round" x1="18.334" y1="16.831" x2="3.124" y2="16.831"/>
	<line fill="none" stroke="#FFFFFF" stroke-width="2" stroke-linecap="round" x1="128.737" y1="16.831" x2="113.528" y2="16.831"/>
</g>
<g>
</g>
</svg>
