<?xml version="1.0" encoding="utf-8"?>
<!-- Generator: Adobe Illustrator 16.0.0, SVG Export Plug-In . SVG Version: 6.00 Build 0)  -->
<!DOCTYPE svg PUBLIC "-//W3C//DTD SVG 1.1//EN" "http://www.w3.org/Graphics/SVG/1.1/DTD/svg11.dtd">
<svg version="1.1" id="Layer_1" xmlns="http://www.w3.org/2000/svg" xmlns:xlink="http://www.w3.org/1999/xlink" x="0px" y="0px"
	 width="129.87px" height="33.333px" viewBox="0 0 129.87 33.333" enable-background="new 0 0 129.87 33.333" xml:space="preserve">
<g>
	<g>
		<g>
			<path fill="#FFFFFF" d="M25.813,22.388c-2.423,0-3.937-2.102-3.937-5.281s1.555-5.295,4.034-5.295
				c2.423,0,3.937,2.073,3.937,5.267C29.847,20.258,28.278,22.388,25.813,22.388z M25.854,13.689c-1.107,0-1.751,1.274-1.751,3.404
				c0,2.115,0.644,3.432,1.751,3.432c1.106,0,1.765-1.316,1.765-3.432C27.619,14.963,26.961,13.689,25.854,13.689z"/>
			<path fill="#FFFFFF" d="M33.315,13.927v2.423h2.689v1.891h-2.689v3.992h-2.129V11.966h5.281v1.961H33.315z"/>
			<path fill="#FFFFFF" d="M37.668,22.233V11.966h2.129v10.268H37.668z"/>
			<path fill="#FFFFFF" d="M45.496,22.388c-2.479,0-4.329-2.115-4.329-5.253c0-3.124,1.793-5.323,4.371-5.323
				c0.882,0,1.639,0.225,2.367,0.715l-0.742,1.793c-0.49-0.322-1.009-0.519-1.569-0.519c-1.275,0-2.199,1.163-2.199,3.236
				c0,2.115,0.882,3.362,2.227,3.362c0.574,0,1.121-0.182,1.639-0.532l0.686,1.779C47.205,22.164,46.378,22.388,45.496,22.388z"/>
			<path fill="#FFFFFF" d="M49.008,22.233V11.966h2.129v10.268H49.008z"/>
			<path fill="#FFFFFF" d="M59.091,22.332l-4.188-5.365v5.267h-2.087V11.91l0.686-0.042l4.146,5.239v-5.141h2.101V22.29
				L59.091,22.332z"/>
			<path fill="#FFFFFF" d="M66.258,22.233l-0.546-1.779h-2.535l-0.546,1.779h-2.101l3.446-10.324h0.995l3.432,10.324H66.258z
				 M64.451,15.93l-0.742,2.773h1.471L64.451,15.93z"/>
			<path fill="#FFFFFF" d="M77.977,22.233l-0.112-5.043l-1.947,3.39h-0.336l-2.003-3.39l-0.084,5.043H71.45l0.336-10.295
				l0.729-0.028l3.278,5.393l3.166-5.393l0.729,0.028l0.35,10.295H77.977z"/>
			<path fill="#FFFFFF" d="M85.213,22.388c-2.423,0-3.937-2.102-3.937-5.281s1.555-5.295,4.034-5.295
				c2.423,0,3.937,2.073,3.937,5.267C89.248,20.258,87.679,22.388,85.213,22.388z M85.255,13.689c-1.107,0-1.751,1.274-1.751,3.404
				c0,2.115,0.644,3.432,1.751,3.432c1.106,0,1.765-1.316,1.765-3.432C87.02,14.963,86.362,13.689,85.255,13.689z M85.017,11.167
				l-0.532-0.798l2.199-1.975l0.896,1.415L85.017,11.167z"/>
			<path fill="#FFFFFF" d="M93.879,22.317h-1.079l-3.362-10.366h2.297l1.625,6.023l1.625-6.023h2.269L93.879,22.317z"/>
			<path fill="#FFFFFF" d="M98.05,22.233V11.966h5.323v1.961h-3.194v2.115h2.83v1.877h-2.83v2.354h3.194v1.961H98.05z"/>
			<path fill="#FFFFFF" d="M104.839,22.233V11.966h2.129v8.32h3.012v1.947H104.839z"/>
		</g>
	</g>
</g>
<rect x="18.334" y="2.998" fill="none" stroke="#FFFFFF" stroke-width="2" stroke-linecap="round" width="95.193" height="27.666"/>
<g>
	<line fill="none" stroke="#FFFFFF" stroke-width="2" stroke-linecap="round" x1="18.334" y1="16.831" x2="3.124" y2="16.831"/>
	<line fill="none" stroke="#FFFFFF" stroke-width="2" stroke-linecap="round" x1="128.737" y1="16.831" x2="113.528" y2="16.831"/>
</g>
<g>
</g>
</svg>
