<?xml version="1.0" encoding="utf-8"?>
<!-- Generator: Adobe Illustrator 16.0.0, SVG Export Plug-In . SVG Version: 6.00 Build 0)  -->
<!DOCTYPE svg PUBLIC "-//W3C//DTD SVG 1.1//EN" "http://www.w3.org/Graphics/SVG/1.1/DTD/svg11.dtd">
<svg version="1.1" id="Layer_1" xmlns="http://www.w3.org/2000/svg" xmlns:xlink="http://www.w3.org/1999/xlink" x="0px" y="0px"
	 width="129.87px" height="33.333px" viewBox="0 0 129.87 33.333" enable-background="new 0 0 129.87 33.333" xml:space="preserve">
<g>
	<g>
		<g>
			<path fill="#FFFFFF" d="M34.598,22.233l-0.128-5.762l-2.225,3.874h-0.384l-2.289-3.874l-0.096,5.762h-2.337l0.384-11.765
				l0.833-0.032l3.746,6.163l3.617-6.163l0.833,0.032l0.4,11.765H34.598z"/>
			<path fill="#FFFFFF" d="M42.869,22.41c-2.769,0-4.498-2.401-4.498-6.035s1.777-6.05,4.61-6.05c2.769,0,4.498,2.369,4.498,6.018
				C47.479,19.977,45.686,22.41,42.869,22.41z M42.917,12.469c-1.265,0-2.001,1.457-2.001,3.89c0,2.417,0.736,3.922,2.001,3.922
				c1.264,0,2.017-1.505,2.017-3.922C44.934,13.926,44.181,12.469,42.917,12.469z"/>
			<path fill="#FFFFFF" d="M51.732,22.33c-0.704,0-1.825-0.048-2.721-0.176V10.597c0.672-0.112,1.969-0.192,2.609-0.192
				c2.961,0,4.306,1.504,4.306,3.121c0,1.232-0.625,2.097-1.617,2.641c1.2,0.464,1.873,1.44,1.873,2.769
				C56.182,20.905,54.725,22.33,51.732,22.33z M52.036,12.549c-0.256,0-0.48,0.032-0.672,0.08v2.769
				c0.16,0.016,0.336,0.032,0.576,0.032c0.992,0,1.537-0.464,1.537-1.473C53.477,13.062,52.948,12.549,52.036,12.549z M52.02,17.111
				c-0.224,0-0.512,0.016-0.656,0.048v3.025c0.208,0.032,0.352,0.048,0.688,0.048c0.976,0,1.584-0.48,1.584-1.568
				C53.637,17.735,53.044,17.111,52.02,17.111z"/>
			<path fill="#FFFFFF" d="M57.635,22.233V10.5h2.433v11.733H57.635z"/>
			<path fill="#FFFFFF" d="M61.986,22.233V10.5h2.433v9.508h3.441v2.225H61.986z"/>
			<path fill="#FFFFFF" d="M69.074,22.233V10.5h6.083v2.241h-3.649v2.417h3.233v2.145h-3.233v2.689h3.649v2.241H69.074z"/>
			<path fill="#FFFFFF" d="M83.651,22.33h-1.232l-3.842-11.845h2.625l1.857,6.882l1.857-6.882h2.593L83.651,22.33z"/>
			<path fill="#FFFFFF" d="M93.06,22.233l-0.624-2.033h-2.897l-0.624,2.033h-2.401l3.938-11.797h1.136l3.922,11.797H93.06z
				 M90.995,15.03L90.147,18.2h1.681L90.995,15.03z"/>
			<path fill="#FFFFFF" d="M103.573,22.345l-4.786-6.13v6.019h-2.385V10.437l0.784-0.048l4.738,5.986V10.5h2.401v11.797
				L103.573,22.345z"/>
		</g>
	</g>
</g>
<rect x="18.334" y="2.998" fill="none" stroke="#FFFFFF" stroke-width="2" stroke-linecap="round" width="95.193" height="27.666"/>
<g>
	<line fill="none" stroke="#FFFFFF" stroke-width="2" stroke-linecap="round" x1="18.334" y1="16.831" x2="3.124" y2="16.831"/>
	<line fill="none" stroke="#FFFFFF" stroke-width="2" stroke-linecap="round" x1="128.737" y1="16.831" x2="113.528" y2="16.831"/>
</g>
<g>
</g>
</svg>
