<?xml version="1.0" encoding="utf-8"?>
<!-- Generator: Adobe Illustrator 16.0.0, SVG Export Plug-In . SVG Version: 6.00 Build 0)  -->
<!DOCTYPE svg PUBLIC "-//W3C//DTD SVG 1.1//EN" "http://www.w3.org/Graphics/SVG/1.1/DTD/svg11.dtd">
<svg version="1.1" id="Layer_1" xmlns="http://www.w3.org/2000/svg" xmlns:xlink="http://www.w3.org/1999/xlink" x="0px" y="0px"
	 width="128.737px" height="33.333px" viewBox="0 0 128.737 33.333" enable-background="new 0 0 128.737 33.333"
	 xml:space="preserve">
<g>
	<g>
		<g>
			<path fill="#E30A17" d="M40.501,22.33h-1.232l-3.842-11.845h2.625l1.857,6.882l1.857-6.882h2.593L40.501,22.33z"/>
			<path fill="#E30A17" d="M45.299,22.233V10.5h2.433v11.733H45.299z"/>
			<path fill="#E30A17" d="M52.34,22.41c-1.088,0-2.385-0.417-3.345-1.073l0.72-2.209c0.785,0.592,1.697,1.009,2.561,1.009
				c0.769,0,1.088-0.417,1.088-0.993c0-0.592-0.32-1.056-1.761-2.097c-1.632-1.137-2.305-2.177-2.305-3.474
				c0-1.648,1.265-3.249,3.489-3.249c1.121,0,2.033,0.32,2.801,0.8l-0.72,2.193c-0.656-0.464-1.345-0.784-2.001-0.784
				c-0.752,0-1.121,0.4-1.121,0.928c0,0.656,0.433,0.96,1.697,1.889c1.793,1.265,2.385,2.273,2.385,3.633
				C55.83,20.809,54.661,22.41,52.34,22.41z"/>
			<path fill="#E30A17" d="M61.46,12.758v9.476h-2.433v-9.476h-2.545V10.5h7.507v2.257H61.46z"/>
			<path fill="#E30A17" d="M68.997,22.41c-2.769,0-4.498-2.401-4.498-6.035s1.777-6.05,4.61-6.05c2.769,0,4.498,2.369,4.498,6.018
				C73.606,19.977,71.814,22.41,68.997,22.41z M69.045,12.469c-1.265,0-2.001,1.457-2.001,3.89c0,2.417,0.736,3.922,2.001,3.922
				c1.264,0,2.017-1.505,2.017-3.922C71.062,13.926,70.309,12.469,69.045,12.469z"/>
			<path fill="#E30A17" d="M77.842,22.233V10.5h6.083v2.241h-3.649v2.417h3.233v2.145h-3.233v2.689h3.649v2.241H77.842z"/>
			<path fill="#E30A17" d="M92.949,22.233l-0.128-5.762l-2.225,3.874h-0.384l-2.289-3.874l-0.096,5.762H85.49l0.384-11.765
				l0.833-0.032l3.746,6.163l3.617-6.163l0.833,0.032l0.4,11.765H92.949z"/>
		</g>
	</g>
</g>
<rect x="18.334" y="2.998" fill="none" stroke="#E30917" stroke-width="2" stroke-linecap="round" width="95.193" height="27.666"/>
<g>
	<line fill="none" stroke="#E30917" stroke-width="2" stroke-linecap="round" x1="18.334" y1="16.831" x2="3.124" y2="16.831"/>
	<line fill="none" stroke="#E30917" stroke-width="2" stroke-linecap="round" x1="128.737" y1="16.831" x2="113.528" y2="16.831"/>
</g>
<g>
</g>
</svg>
