<?xml version="1.0" encoding="utf-8"?>
<!-- Generator: Adobe Illustrator 16.0.0, SVG Export Plug-In . SVG Version: 6.00 Build 0)  -->
<!DOCTYPE svg PUBLIC "-//W3C//DTD SVG 1.1//EN" "http://www.w3.org/Graphics/SVG/1.1/DTD/svg11.dtd">
<svg version="1.1" id="Layer_1" xmlns="http://www.w3.org/2000/svg" xmlns:xlink="http://www.w3.org/1999/xlink" x="0px" y="0px"
	 width="128.737px" height="33.333px" viewBox="0 0 128.737 33.333" enable-background="new 0 0 128.737 33.333"
	 xml:space="preserve">
<g>
	<g>
		<g>
			<path fill="#005CA9" d="M37.996,22.41c-1.088,0-2.385-0.417-3.345-1.073l0.72-2.209c0.784,0.592,1.697,1.009,2.561,1.009
				c0.769,0,1.088-0.417,1.088-0.993c0-0.592-0.32-1.056-1.761-2.097c-1.632-1.137-2.305-2.177-2.305-3.474
				c0-1.648,1.265-3.249,3.489-3.249c1.121,0,2.033,0.32,2.801,0.8l-0.72,2.193c-0.656-0.464-1.345-0.784-2.001-0.784
				c-0.752,0-1.121,0.4-1.121,0.928c0,0.656,0.433,0.96,1.697,1.889c1.793,1.265,2.385,2.273,2.385,3.633
				C41.485,20.809,40.317,22.41,37.996,22.41z"/>
			<path fill="#005CA9" d="M42.779,22.233V10.5h6.083v2.241h-3.649v2.417h3.233v2.145h-3.233v2.689h3.649v2.241H42.779z"/>
			<path fill="#005CA9" d="M55.42,22.233L53.948,18.2c-0.112,0.016-0.24,0.016-0.352,0.016c-0.24,0-0.416-0.016-0.624-0.032v4.05
				h-2.433V10.581c0.72-0.096,1.649-0.176,2.689-0.176c3.122,0,4.482,1.745,4.482,3.81c0,1.457-0.576,2.513-1.681,3.265l2.049,4.754
				H55.42z M53.58,12.613c-0.24,0-0.384,0.016-0.608,0.048v3.537c0.208,0.032,0.304,0.032,0.512,0.032
				c1.104,0,1.745-0.624,1.745-1.873C55.229,13.27,54.652,12.613,53.58,12.613z"/>
			<path fill="#005CA9" d="M63.164,22.33h-1.232L58.09,10.485h2.625l1.857,6.882l1.857-6.882h2.593L63.164,22.33z"/>
			<path fill="#005CA9" d="M67.962,22.233V10.5h2.433v11.733H67.962z"/>
			<path fill="#005CA9" d="M76.684,25.851c-0.592,0-1.184-0.224-1.809-0.577l0.448-1.088c0.528,0.352,1.008,0.544,1.457,0.544
				c0.272,0,0.448-0.112,0.448-0.432c0-0.24-0.288-0.496-1.36-0.496l-0.048-0.144l0.336-1.313c-2.449-0.368-4.194-2.673-4.194-5.938
				c0-3.57,2.049-6.083,4.994-6.083c1.008,0,1.873,0.256,2.705,0.816l-0.849,2.049c-0.56-0.368-1.152-0.592-1.792-0.592
				c-1.457,0-2.513,1.329-2.513,3.697c0,2.417,1.008,3.842,2.545,3.842c0.656,0,1.281-0.208,1.873-0.608l0.784,2.033
				c-0.833,0.576-1.761,0.833-2.737,0.849l-0.096,0.416c1.168,0.256,1.617,0.784,1.617,1.457
				C78.493,25.115,77.868,25.851,76.684,25.851z"/>
			<path fill="#005CA9" d="M84.604,22.41c-2.769,0-4.498-2.401-4.498-6.035s1.777-6.05,4.61-6.05c2.769,0,4.498,2.369,4.498,6.018
				C89.214,19.977,87.421,22.41,84.604,22.41z M84.652,12.469c-1.265,0-2.001,1.457-2.001,3.89c0,2.417,0.736,3.922,2.001,3.922
				c1.264,0,2.017-1.505,2.017-3.922C86.669,13.926,85.917,12.469,84.652,12.469z"/>
			<path fill="#005CA9" d="M93.371,22.41c-1.088,0-2.385-0.417-3.345-1.073l0.72-2.209c0.785,0.592,1.697,1.009,2.561,1.009
				c0.769,0,1.088-0.417,1.088-0.993c0-0.592-0.32-1.056-1.761-2.097c-1.632-1.137-2.305-2.177-2.305-3.474
				c0-1.648,1.265-3.249,3.489-3.249c1.121,0,2.033,0.32,2.801,0.8l-0.72,2.193c-0.656-0.464-1.345-0.784-2.001-0.784
				c-0.752,0-1.121,0.4-1.121,0.928c0,0.656,0.433,0.96,1.697,1.889c1.793,1.265,2.385,2.273,2.385,3.633
				C96.861,20.809,95.692,22.41,93.371,22.41z"/>
		</g>
	</g>
</g>
<rect x="18.334" y="2.998" fill="none" stroke="#005CA9" stroke-width="2" stroke-linecap="round" width="95.193" height="27.666"/>
<g>
	<line fill="none" stroke="#005CA9" stroke-width="2" stroke-linecap="round" x1="18.334" y1="16.831" x2="3.124" y2="16.831"/>
	<line fill="none" stroke="#005CA9" stroke-width="2" stroke-linecap="round" x1="128.737" y1="16.831" x2="113.528" y2="16.831"/>
</g>
</svg>
