<?xml version="1.0" encoding="utf-8"?>
<!-- Generator: Adobe Illustrator 16.0.0, SVG Export Plug-In . SVG Version: 6.00 Build 0)  -->
<!DOCTYPE svg PUBLIC "-//W3C//DTD SVG 1.1//EN" "http://www.w3.org/Graphics/SVG/1.1/DTD/svg11.dtd">
<svg version="1.1" id="Layer_1" xmlns="http://www.w3.org/2000/svg" xmlns:xlink="http://www.w3.org/1999/xlink" x="0px" y="0px"
	 width="128.737px" height="33.333px" viewBox="0 0 128.737 33.333" enable-background="new 0 0 128.737 33.333"
	 xml:space="preserve">
<g>
	<g>
		<g>
			<path fill="#005CA9" d="M39.012,22.41c-1.088,0-2.385-0.417-3.345-1.073l0.72-2.209c0.785,0.592,1.697,1.009,2.561,1.009
				c0.769,0,1.088-0.417,1.088-0.993c0-0.592-0.32-1.056-1.761-2.097c-1.632-1.137-2.305-2.177-2.305-3.474
				c0-1.648,1.265-3.249,3.489-3.249c1.121,0,2.033,0.32,2.801,0.8l-0.72,2.193c-0.656-0.464-1.345-0.784-2.001-0.784
				c-0.752,0-1.121,0.4-1.121,0.928c0,0.656,0.433,0.96,1.697,1.889c1.793,1.265,2.385,2.273,2.385,3.633
				C42.501,20.809,41.333,22.41,39.012,22.41z"/>
			<path fill="#005CA9" d="M43.794,22.233V10.5h6.083v2.241h-3.649v2.417h3.233v2.145h-3.233v2.689h3.649v2.241H43.794z"/>
			<path fill="#005CA9" d="M56.436,22.233L54.963,18.2c-0.112,0.016-0.24,0.016-0.352,0.016c-0.24,0-0.416-0.016-0.624-0.032v4.05
				h-2.433V10.581c0.72-0.096,1.649-0.176,2.689-0.176c3.122,0,4.482,1.745,4.482,3.81c0,1.457-0.576,2.513-1.681,3.265l2.049,4.754
				H56.436z M54.596,12.613c-0.24,0-0.384,0.016-0.608,0.048v3.537c0.208,0.032,0.304,0.032,0.512,0.032
				c1.104,0,1.745-0.624,1.745-1.873C56.244,13.27,55.668,12.613,54.596,12.613z"/>
			<path fill="#005CA9" d="M64.181,22.33h-1.232l-3.842-11.845h2.625l1.857,6.882l1.857-6.882h2.593L64.181,22.33z"/>
			<path fill="#005CA9" d="M68.979,22.233V10.5h2.433v11.733H68.979z"/>
			<path fill="#005CA9" d="M77.924,22.41c-2.833,0-4.946-2.417-4.946-6.002c0-3.57,2.049-6.083,4.994-6.083
				c1.008,0,1.873,0.256,2.705,0.816l-0.849,2.049c-0.56-0.368-1.152-0.592-1.792-0.592c-1.457,0-2.513,1.329-2.513,3.697
				c0,2.417,1.008,3.842,2.545,3.842c0.656,0,1.281-0.208,1.873-0.608l0.784,2.033C79.877,22.153,78.933,22.41,77.924,22.41z"/>
			<path fill="#005CA9" d="M81.906,22.233V10.5h6.083v2.241h-3.649v2.417h3.233v2.145h-3.233v2.689h3.649v2.241H81.906z"/>
			<path fill="#005CA9" d="M92.355,22.41c-1.088,0-2.385-0.417-3.345-1.073l0.72-2.209c0.784,0.592,1.697,1.009,2.561,1.009
				c0.769,0,1.088-0.417,1.088-0.993c0-0.592-0.32-1.056-1.761-2.097c-1.632-1.137-2.305-2.177-2.305-3.474
				c0-1.648,1.265-3.249,3.489-3.249c1.121,0,2.033,0.32,2.801,0.8l-0.72,2.193c-0.656-0.464-1.345-0.784-2.001-0.784
				c-0.752,0-1.121,0.4-1.121,0.928c0,0.656,0.433,0.96,1.697,1.889c1.793,1.265,2.385,2.273,2.385,3.633
				C95.845,20.809,94.676,22.41,92.355,22.41z"/>
		</g>
	</g>
</g>
<rect x="18.334" y="2.998" fill="none" stroke="#005CA9" stroke-width="2" stroke-linecap="round" width="95.193" height="27.666"/>
<g>
	<line fill="none" stroke="#005CA9" stroke-width="2" stroke-linecap="round" x1="18.334" y1="16.831" x2="3.124" y2="16.831"/>
	<line fill="none" stroke="#005CA9" stroke-width="2" stroke-linecap="round" x1="128.737" y1="16.831" x2="113.528" y2="16.831"/>
</g>
<g>
</g>
</svg>
