<?xml version="1.0" encoding="utf-8"?>
<!-- Generator: Adobe Illustrator 16.0.0, SVG Export Plug-In . SVG Version: 6.00 Build 0)  -->
<!DOCTYPE svg PUBLIC "-//W3C//DTD SVG 1.1//EN" "http://www.w3.org/Graphics/SVG/1.1/DTD/svg11.dtd">
<svg version="1.1" id="Layer_1" xmlns="http://www.w3.org/2000/svg" xmlns:xlink="http://www.w3.org/1999/xlink" x="0px" y="0px"
	 width="128.737px" height="33.333px" viewBox="0 0 128.737 33.333" enable-background="new 0 0 128.737 33.333"
	 xml:space="preserve">
<g>
	<g>
		<g>
			<path fill="#005CA9" d="M31.98,22.41c-1.088,0-2.385-0.417-3.345-1.073l0.72-2.209c0.784,0.592,1.697,1.009,2.561,1.009
				c0.769,0,1.088-0.417,1.088-0.993c0-0.592-0.32-1.056-1.761-2.097c-1.632-1.137-2.305-2.177-2.305-3.474
				c0-1.648,1.265-3.249,3.489-3.249c1.121,0,2.033,0.32,2.801,0.8l-0.72,2.193c-0.656-0.464-1.345-0.784-2.001-0.784
				c-0.752,0-1.121,0.4-1.121,0.928c0,0.656,0.433,0.96,1.697,1.889c1.793,1.265,2.385,2.273,2.385,3.633
				C35.47,20.809,34.301,22.41,31.98,22.41z"/>
			<path fill="#005CA9" d="M40.541,22.41c-2.353,0-3.857-1.297-3.857-4.018V10.5h2.433v7.907c0,1.137,0.496,1.809,1.504,1.809
				c0.993,0,1.457-0.672,1.457-1.809V10.5h2.433v7.891C44.51,21.145,42.926,22.41,40.541,22.41z"/>
			<path fill="#005CA9" d="M54.094,15.495v5.955c-0.945,0.64-2.081,0.96-3.313,0.96c-2.753,0-4.834-2.193-4.834-6.002
				c0-3.618,2.049-6.083,4.962-6.083c1.152,0,2.193,0.384,2.993,0.944l-0.96,2c-0.608-0.4-1.249-0.672-1.953-0.672
				c-1.601,0-2.497,1.488-2.497,3.793c0,2.529,1.041,3.89,2.417,3.89c0.416,0,0.704-0.048,0.928-0.16v-2.497h-1.568v-2.129H54.094z"
				/>
			<path fill="#005CA9" d="M55.691,22.233V10.5h6.083v2.241h-3.649v2.417h3.233v2.145h-3.233v2.689h3.649v2.241H55.691z"/>
			<path fill="#005CA9" d="M66.14,22.41c-1.088,0-2.385-0.417-3.345-1.073l0.72-2.209c0.785,0.592,1.697,1.009,2.561,1.009
				c0.769,0,1.088-0.417,1.088-0.993c0-0.592-0.32-1.056-1.761-2.097c-1.632-1.137-2.305-2.177-2.305-3.474
				c0-1.648,1.265-3.249,3.489-3.249c1.121,0,2.033,0.32,2.801,0.8l-0.72,2.193c-0.656-0.464-1.345-0.784-2.001-0.784
				c-0.752,0-1.121,0.4-1.121,0.928c0,0.656,0.433,0.96,1.697,1.889c1.793,1.265,2.385,2.273,2.385,3.633
				C69.629,20.809,68.461,22.41,66.14,22.41z"/>
			<path fill="#005CA9" d="M75.26,12.758v9.476h-2.433v-9.476h-2.545V10.5h7.507v2.257H75.26z"/>
			<path fill="#005CA9" d="M82.796,22.41c-2.769,0-4.498-2.401-4.498-6.035s1.777-6.05,4.61-6.05c2.769,0,4.498,2.369,4.498,6.018
				C87.406,19.977,85.613,22.41,82.796,22.41z M83.933,9.476c-0.464,0-0.736-0.096-1.072-0.272
				c-0.353-0.208-0.608-0.272-0.945-0.272c-0.4,0-0.8,0.176-1.12,0.56l-0.64-1.168c0.416-0.512,1.12-0.944,1.729-0.944
				c0.448,0,0.752,0.112,1.072,0.304c0.336,0.176,0.544,0.224,0.864,0.224c0.384,0,0.769-0.16,1.104-0.576l0.72,1.232
				C85.229,9.044,84.525,9.476,83.933,9.476z M82.844,12.469c-1.265,0-2.001,1.457-2.001,3.89c0,2.417,0.736,3.922,2.001,3.922
				s2.017-1.505,2.017-3.922C84.861,13.926,84.109,12.469,82.844,12.469z"/>
			<path fill="#005CA9" d="M88.938,22.233V10.5h6.083v2.241h-3.649v2.417h3.233v2.145h-3.233v2.689h3.649v2.241H88.938z"/>
			<path fill="#005CA9" d="M99.387,22.41c-1.088,0-2.385-0.417-3.345-1.073l0.72-2.209c0.785,0.592,1.697,1.009,2.561,1.009
				c0.769,0,1.088-0.417,1.088-0.993c0-0.592-0.32-1.056-1.761-2.097c-1.632-1.137-2.305-2.177-2.305-3.474
				c0-1.648,1.265-3.249,3.489-3.249c1.121,0,2.033,0.32,2.801,0.8l-0.72,2.193c-0.656-0.464-1.345-0.784-2.001-0.784
				c-0.752,0-1.121,0.4-1.121,0.928c0,0.656,0.433,0.96,1.697,1.889c1.793,1.265,2.385,2.273,2.385,3.633
				C102.876,20.809,101.708,22.41,99.387,22.41z"/>
		</g>
	</g>
</g>
<rect x="18.334" y="2.998" fill="none" stroke="#005CA9" stroke-width="2" stroke-linecap="round" width="95.193" height="27.666"/>
<g>
	<line fill="none" stroke="#005CA9" stroke-width="2" stroke-linecap="round" x1="18.334" y1="16.831" x2="3.124" y2="16.831"/>
	<line fill="none" stroke="#005CA9" stroke-width="2" stroke-linecap="round" x1="128.737" y1="16.831" x2="113.528" y2="16.831"/>
</g>
</svg>
